# xmcd
#
# Track frame offsets: 
#        150
#        17528
#        37445
#        57229
#        76843
#        98820
#        113049
#        134768
#        157112
#        172666
#        185185
#        211525
#        225886
#        240530
#        269987
#        299556
#        314394
#
# Disc length: 4393 seconds
#
# Revision: 0
# Processed by: cddbd v1.5.2PL0 Copyright (c) Steve Scherf et al.
# Submitted via: ExactAudioCopy v1.0b3
#
DISCID=f1112711
DTITLE=THP Orchestra - Early Riser
DYEAR=1976
DGENRE=Disco
TTITLE0=Theme From S.W.A.T.
TTITLE1=More
TTITLE2=Sugar, Sugar
TTITLE3=Dawn Patrol
TTITLE4=Early Riser
TTITLE5=Crazy, Crazy
TTITLE6=Manha De Carnival
TTITLE7=Shadow Of Your Smile
TTITLE8=Sleepwalk
TTITLE9=Theme From S.W.A.T. (Original 7" Mix)
TTITLE10=Early Riser (Original 12" Mix)
TTITLE11=Early Riser (Original 7" Mix)
TTITLE12=Manha De Carnival (7" Edit)
TTITLE13=Fightin' On The Side Of Love (Original 12" Mix)
TTITLE14=Fightin' On The Side Of Love (Instrumental 12" Mix)
TTITLE15=Fightin' On The Side Of Love (Original 7" Mix)
TTITLE16=Fightin' On The Side Of Love (Instrumental 7" Mix)
EXTD=
EXTT0=
EXTT1=
EXTT2=
EXTT3=
EXTT4=
EXTT5=
EXTT6=
EXTT7=
EXTT8=
EXTT9=
EXTT10=
EXTT11=
EXTT12=
EXTT13=
EXTT14=
EXTT15=
EXTT16=
PLAYORDER=
